#!OML:ASF H:\Terrain\Patient Classification 1\Takeo\Monday\TakeoMonday.ASF
:FULLY-SPECIFIED
:DEGREES
414
root 12.539 15.2866 -1.48948 3.82801 -32.9257 25.6336
lowerback 24.7572 -3.15447 6.60431
upperback 13.3176 -2.95261 7.8398
thorax 1.25863 -1.59949 5.504
lowerneck -10.0688 -12.0834 -6.32817
upperneck 10.9555 -16.2887 7.59698
head 6.10584 -7.6215 1.91193
rclavicle -4.45278e-014 -9.85972e-014
rhumerus 14.6422 -13.2538 -58.6379
rradius 35.7267
rwrist -1.46398
rhand -37.8747 44.3974
rfingers 7.12502
rthumb -10.9184 14.7013
lclavicle -4.45278e-014 -9.85972e-014
lhumerus -25.0224 -9.34087 96.3806
lradius 67.6127
lwrist 41.5794
lhand -20.5794 18.3098
lfingers 7.12502
lthumb 5.78043 48.211
rfemur -62.3421 5.97516 -19.7713
rtibia 72.0744
rfoot -24.5303 -5.26895
rtoes -27.1937
lfemur -50.5988 23.1845 -63.2937
ltibia 59.9537
lfoot -30.5663 12.9656
ltoes -2.22871
415
root 12.5626 15.2722 -1.46565 2.77022 -33.877 26.2354
lowerback 26.0624 -2.86686 6.47177
upperback 13.7573 -2.54877 7.90281
thorax 1.13721 -1.42764 5.62322
lowerneck -10.1428 -12.1963 -6.24896
upperneck 10.5389 -16.3791 7.29311
head 5.95852 -7.69429 1.80771
rclavicle -6.36111e-014 -4.13472e-014
rhumerus 15.4826 -14.0447 -58.4903
rradius 34.6104
rwrist -0.727662
rhand -37.3119 44.7742
rfingers 7.12502
rthumb -10.3756 15.0502
lclavicle -6.36111e-014 -4.13472e-014
lhumerus -24.9638 -9.53661 96.7331
lradius 67.983
lwrist 41.3471
lhand -19.8673 18.3944
lfingers 7.12502
lthumb 6.46789 48.2756
rfemur -62.4712 6.8752 -20.4009
rtibia 72.5141
rfoot -24.8939 -5.2011
rtoes -28.2738
lfemur -50.6046 24.0168 -63.7713
ltibia 60.5792
lfoot -31.3524 13.0514
ltoes -1.50005
416
root 12.5836 15.2159 -1.46481 2.02422 -33.922 27.353
lowerback 26.7735 -2.83281 6.21943
upperback 13.9605 -2.50832 7.83576
thorax 1.04152 -1.42141 5.71929
lowerneck -10.1376 -12.3321 -5.96931
upperneck 9.91365 -16.5404 7.15138
head 5.73504 -7.79087 1.72861
rclavicle 0 -7.95139e-014
rhumerus 15.7611 -14.5251 -58.1169
rradius 34.3406
rwrist -1.13003
rhand -36.6375 44.6032
rfingers 7.12502
rthumb -9.72489 14.8478
lclavicle 0 -7.95139e-014
lhumerus -24.8414 -9.74887 96.9087
lradius 68.2861
lwrist 41.5054
lhand -20.0254 18.0651
lfingers 7.12502
lthumb 6.31528 47.951
rfemur -62.6579 6.63539 -21.4796
rtibia 73.0984
rfoot -25.2887 -5.15952
rtoes -29.2144
lfemur -50.6871 23.8446 -64.7385
ltibia 61.2855
lfoot -31.8463 13.4553
ltoes -2.12803
417
root 12.6136 15.1273 -1.51141 2.2507 -33.4272 27.6639
lowerback 27.3288 -3.00784 6.55833
upperback 13.8635 -2.56091 7.95516
thorax 0.679646 -1.43201 5.71108
lowerneck -9.98642 -12.476 -5.86282
upperneck 9.4494 -16.7391 7.2952
head 5.58118 -7.89109 1.75842
rclavicle -1.59028e-014 7.95139e-015
rhumerus 15.5794 -14.5903 -57.5225
rradius 34.563
rwrist -2.0142
rhand -36.4087 43.9059
rfingers 7.12502
rthumb -9.50418 14.1402
lclavicle -1.59028e-014 7.95139e-015
lhumerus -24.7894 -9.98424 96.863
lradius 68.5774
lwrist 41.9863
lhand -20.4339 17.7587
lfingers 7.12502
lthumb 5.92093 47.656
rfemur -63.2984 5.87663 -21.8448
rtibia 73.7728
rfoot -25.2199 -5.44702
rtoes -30.0081
lfemur -51.2984 22.7972 -65.0879
ltibia 61.9881
lfoot -31.9001 13.8073
ltoes -1.74398
418
root 12.6288 15.0813 -1.47453 2.58262 -34.24 27.3325
lowerback 27.5401 -3.03023 7.53871
upperback 14.0767 -2.39527 7.86769
thorax 0.799717 -1.30034 5.02199
lowerneck -9.84347 -12.4619 -5.76712
upperneck 9.19496 -16.7391 7.47032
head 5.48611 -7.8873 1.81353
rclavicle 6.67916e-014 7.15625e-014
rhumerus 15.7863 -14.7226 -57.5285
rradius 34.3085
rwrist -2.08979
rhand -36.5866 44.0148
rfingers 7.12502
rthumb -9.67582 14.257
lclavicle 6.67916e-014 7.15625e-014
lhumerus -24.8664 -10.3127 96.5842
lradius 68.9529
lwrist 42.3554
lhand -20.6615 17.8179
lfingers 7.12502
lthumb 5.70121 47.7212
rfemur -64.3082 6.27891 -21.732
rtibia 74.3919
rfoot -25.4099 -5.67952
rtoes -30.6957
lfemur -52.188 22.9104 -65.128
ltibia 62.6826
lfoot -32.3354 14.4081
ltoes -2.37627
419
root 12.6343 15.0062 -1.47596 3.20215 -34.1369 27.687
lowerback 27.2015 -3.08295 7.82124
upperback 14.0133 -2.42445 7.96139
thorax 0.88453 -1.29811 4.95842
lowerneck -9.66954 -12.4795 -5.8376
upperneck 8.93021 -16.7561 7.60998
head 5.39446 -7.90133 1.8811
rclavicle -5.08889e-014 -5.725e-014
rhumerus 16.2753 -15.2491 -57.6179
rradius 33.7909
rwrist -1.91201
rhand -36.5347 43.4163
rfingers 7.12502
rthumb -9.62574 13.6562
lclavicle -5.08889e-014 -5.725e-014
lhumerus -24.8343 -10.7908 96.624
lradius 69.0526
lwrist 42.0515
lhand -20.7752 17.5191
lfingers 7.12502
lthumb 5.59144 47.4253
rfemur -65.406 5.5015 -22.202
rtibia 75.2149
rfoot -25.5439 -5.77998
rtoes -31.4697
lfemur -53.1798 21.9427 -65.7846
ltibia 63.374
lfoot -32.1494 15.5362
ltoes -4.40792
420
root 12.6506 14.9246 -1.49266 3.0885 -33.968 28.6884
lowerback 27.2761 -3.00482 7.41125
upperback 13.9998 -2.39552 8.11041
thorax 0.848696 -1.31013 5.35512
lowerneck -9.46478 -12.6213 -6.21071
upperneck 8.60108 -16.9009 7.76036
head 5.31247 -7.98989 1.98288
rclavicle 3.18055e-014 6.52014e-014
rhumerus 16.1841 -15.3246 -56.8987
rradius 33.9568
rwrist -2.88046
rhand -36.2308 42.5386
rfingers 7.12502
rthumb -9.33249 12.7652
lclavicle 3.18055e-014 6.52014e-014
lhumerus -24.716 -11.1083 96.9575
lradius 69.0383
lwrist 41.5954
lhand -20.7231 16.9529
lfingers 7.12502
lthumb 5.64172 46.8578
rfemur -66.2058 4.71594 -23.1816
rtibia 76.0297
rfoot -25.5979 -5.6029
rtoes -31.8986
lfemur -53.7256 21.1475 -66.7957
ltibia 63.9377
lfoot -31.9497 16.1898
ltoes -4.1116
421
root 12.6731 14.8662 -1.49069 2.61073 -34.0603 29.4931
lowerback 27.7331 -3.0327 7.16852
upperback 14.1617 -2.45191 8.18683
thorax 0.841919 -1.3581 5.61926
lowerneck -9.45141 -12.6461 -6.34212
upperneck 8.35004 -16.8871 7.61873
head 5.2287 -8.00523 1.96948
rclavicle 4.13472e-014 -8.50798e-014
rhumerus 15.9547 -14.7535 -56.0257
rradius 34.4804
rwrist -4.28679
rhand -36.0912 42.5306
rfingers 7.12502
rthumb -9.19776 12.7512
lclavicle 4.13472e-014 -8.50798e-014
lhumerus -24.6496 -11.1226 97.1072
lradius 69.2349
lwrist 41.5092
lhand -20.9029 16.6245
lfingers 7.12502
lthumb 5.46805 46.5339
rfemur -66.7133 4.45528 -24.0053
rtibia 76.755
rfoot -25.832 -5.05021
rtoes -30.6402
lfemur -53.9202 20.8928 -67.5
ltibia 64.4326
lfoot -32.1524 16.4153
ltoes -2.89995
422
root 12.6924 14.821 -1.47306 2.23907 -34.4244 30.022
lowerback 28.1716 -3.06161 7.21248
upperback 14.4306 -2.47366 8.14346
thorax 0.956149 -1.36948 5.57343
lowerneck -9.70255 -12.5582 -5.95922
upperneck 8.18331 -16.7578 7.23851
head 5.14233 -7.95383 1.81072
rclavicle 1.04958e-013 9.54166e-015
rhumerus 16.3998 -14.6244 -55.8304
rradius 34.419
rwrist -4.84725
rhand -36.3743 42.4093
rfingers 7.12502
rthumb -9.47101 12.6421
lclavicle 1.04958e-013 9.54166e-015
lhumerus -24.4885 -11.1274 97.0335
lradius 69.4256
lwrist 41.5754
lhand -21.0077 16.5652
lfingers 7.12502
lthumb 5.36694 46.4773
rfemur -67.2531 4.54177 -24.6366
rtibia 77.323
rfoot -25.988 -4.78689
rtoes -29.6168
lfemur -54.2284 20.9004 -67.9994
ltibia 64.9293
lfoot -32.6443 16.4667
ltoes -2.45309
423
root 12.7053 14.7968 -1.43097 2.17003 -35.1447 30.0358
lowerback 28.3042 -2.98778 7.81402
upperback 14.8137 -2.30897 8.02646
thorax 1.3228 -1.25275 5.05871
lowerneck -9.7294 -12.5242 -5.50299
upperneck 7.77957 -16.7273 7.07079
head 4.96619 -7.94771 1.71555
rclavicle -6.36111e-015 1.64594e-013
rhumerus 16.8211 -15.0153 -55.9235
rradius 34.2039
rwrist -4.99927
rhand -36.8299 42.166
rfingers 7.12502
rthumb -9.91055 12.4192
lclavicle -6.36111e-015 1.64594e-013
lhumerus -24.2106 -11.3953 96.884
lradius 69.4567
lwrist 41.7542
lhand -21.0675 16.4501
lfingers 7.12502
lthumb 5.30914 46.3636
rfemur -67.8598 5.06162 -24.8646
rtibia 77.8017
rfoot -26.3865 -4.92009
rtoes -30.1845
lfemur -54.7387 21.209 -68.1577
ltibia 65.4807
lfoot -33.3409 16.4452
ltoes -2.62851
424
root 12.7137 14.7664 -1.39773 2.30453 -35.602 29.6617
lowerback 28.5207 -2.90891 8.74027
upperback 15.0516 -2.02538 8.18581
thorax 1.50348 -1.07186 4.65218
lowerneck -9.41818 -12.7627 -5.621
upperneck 7.42713 -17.0239 7.08047
head 4.83467 -8.11285 1.73608
rclavicle -6.36111e-015 -5.725e-014
rhumerus 17.5378 -15.9007 -56.1423
rradius 33.3757
rwrist -4.35897
rhand -37.0389 42.236
rfingers 7.12502
rthumb -10.1122 12.499
lclavicle -6.36111e-015 -5.725e-014
lhumerus -24.0078 -11.9558 97.1664
lradius 69.358
lwrist 41.9921
lhand -21.4379 16.2454
lfingers 7.12502
lthumb 4.9515 46.1675
rfemur -68.2825 5.48213 -24.6901
rtibia 78.3225
rfoot -26.9919 -4.85006
rtoes -30.384
lfemur -55.1138 21.3903 -67.9794
ltibia 66.07
lfoot -33.8794 16.7787
ltoes -3.32852
425
root 12.7322 14.6654 -1.45022 2.71185 -34.5428 30.1391
lowerback 28.6075 -3.07852 8.76436
upperback 14.7525 -2.13413 8.68783
thorax 1.14738 -1.14665 5.2488
lowerneck -9.49893 -13.1138 -6.37339
upperneck 7.70183 -17.4235 7.12781
head 5.02565 -8.31544 1.79377
rclavicle 6.36111e-014 -1.03368e-014
rhumerus 20.0146 -17.6701 -57.6301
rradius 31.0567
rwrist -1.70633
rhand -37.274 42.3807
rfingers 7.12502
rthumb -10.3389 12.6549
lclavicle 6.36111e-014 -1.03368e-014
lhumerus -23.8279 -12.0702 97.7355
lradius 69.2872
lwrist 42.4432
lhand -21.3097 16.3272
lfingers 7.12502
lthumb 5.07534 46.2464
rfemur -68.7282 3.97037 -25.0676
rtibia 79.156
rfoot -26.9863 -4.7788
rtoes -30.3262
lfemur -55.5382 19.8653 -68.405
ltibia 66.754
lfoot -33.6726 17.382
ltoes -3.25042
426
root 12.7493 14.5828 -1.46187 2.67772 -34.2991 30.9743
lowerback 28.5936 -3.20066 8.40469
upperback 14.7494 -2.35849 8.74974
thorax 1.16687 -1.2766 5.58427
lowerneck -9.78483 -13.1088 -6.65768
upperneck 7.92948 -17.3873 7.17851
head 5.16962 -8.28969 1.82302
rclavicle -9.54166e-015 1.13705e-013
rhumerus 20.3419 -16.7766 -56.8542
rradius 31.0086
rwrist -2.78555
rhand -37.3011 42.2128
rfingers 7.12502
rthumb -10.3651 12.4883
lclavicle -9.54166e-015 1.13705e-013
lhumerus -23.5634 -11.3103 97.7589
lradius 69.3256
lwrist 43.0946
lhand -20.7888 16.8287
lfingers 7.12502
lthumb 5.57828 46.7353
rfemur -69.3069 3.06618 -25.8032
rtibia 79.8235
rfoot -26.9017 -4.99444
rtoes -30.3741
lfemur -56.0158 19.1169 -69.2364
ltibia 67.2703
lfoot -33.669 17.7753
ltoes -3.14899
427
root 12.7585 14.531 -1.44357 2.79253 -34.7011 31.2911
lowerback 28.3655 -3.22056 8.64429
upperback 14.9344 -2.40191 8.47097
thorax 1.46801 -1.26477 5.12765
lowerneck -9.4657 -12.991 -6.05695
upperneck 7.558 -17.2976 7.23997
head 4.95139 -8.24202 1.80453
rclavicle 1.59028e-014 -7.15625e-015
rhumerus 21.1222 -17.2529 -57.7563
rradius 30.2476
rwrist -2.18074
rhand -37.3023 42.3771
rfingers 7.12502
rthumb -10.3663 12.6526
lclavicle 1.59028e-014 -7.15625e-015
lhumerus -23.3464 -11.0759 97.2999
lradius 69.2796
lwrist 43.5483
lhand -20.8008 17.3526
lfingers 7.12502
lthumb 5.56669 47.2594
rfemur -70.1446 2.89269 -26.1205
rtibia 80.4614
rfoot -27.09 -5.40533
rtoes -30.6368
lfemur -56.6892 18.9707 -69.7431
ltibia 67.8432
lfoot -34.065 17.8784
ltoes -3.34649
